<svg xmlns="http://www.w3.org/2000/svg" width="48" height="68" viewBox="0 0 48 68">
  <!-- hood -->
  <path d="M13 24 Q13 5 24 5 Q35 5 35 24 L35 27 Q35 32 30 34 L18 34 Q13 32 13 27 Z" fill="#4f50ab"/>
  <path d="M15 20 Q15 7 24 7 Q33 7 33 20 Q30 12 24 12 Q18 12 15 20 Z" fill="#6a6ac4"/>
  <path d="M13 27 Q13 32 18 34 L16 34 Q12 31 12 26 Z" fill="#34346e"/>
  <path d="M13 24 Q13 5 24 5 Q35 5 35 24" fill="none" stroke="#00ff41" stroke-width="1.5"/>
  <!-- face + visor -->
  <path d="M16 24 Q16 14 24 14 Q32 14 32 24 Q32 28 27 29 L21 29 Q16 28 16 24 Z" fill="#04150a"/>
  <rect x="15" y="21" width="18" height="6" rx="3" fill="#00ff41" opacity="0.22"/>
  <rect x="18" y="22" width="12" height="4" rx="2" fill="#00ff41"/>
  <rect x="19" y="22.5" width="10" height="1.5" rx="0.75" fill="#b8ffd0"/>
  <!-- coat -->
  <path d="M16 34 L16 55 Q16 60 24 60 Q32 60 32 55 L32 34 Z" fill="#2e2e5c"/>
  <path d="M20 34 L20 55 Q20 58 24 58 Q28 58 28 55 L28 34 Z" fill="#23234a"/>
  <path d="M16 34 L16 42 Q16 46 20 49 L20 34 Z" fill="#3c3c72"/>
  <path d="M24 34 L24 60" stroke="#1c1c40" stroke-width="1.5"/>
  <path d="M18 36 L18 50 M30 36 L30 50" stroke="#1c1c40" stroke-width="1"/>
  <!-- chest core -->
  <circle cx="24" cy="42" r="4.5" fill="none" stroke="#00ff41" stroke-width="1" opacity="0.5"/>
  <circle cx="24" cy="42" r="2.5" fill="#00ff41"/>
  <circle cx="24" cy="42" r="1.2" fill="#b8ffd0"/>
  <!-- arms -->
  <rect x="10" y="35" width="5" height="16" rx="2.5" fill="#2e2e5c"/>
  <rect x="33" y="35" width="5" height="16" rx="2.5" fill="#2e2e5c"/>
  <rect x="10" y="35" width="5" height="5" rx="2.5" fill="#3c3c72"/>
  <rect x="33" y="35" width="5" height="5" rx="2.5" fill="#3c3c72"/>
  <rect x="10" y="48" width="5" height="2" fill="#00ff41"/>
  <rect x="33" y="48" width="5" height="2" fill="#00ff41"/>
  <rect x="10" y="50" width="5" height="4" rx="2" fill="#04150a"/>
  <rect x="33" y="50" width="5" height="4" rx="2" fill="#04150a"/>
  <!-- belt -->
  <rect x="16" y="54" width="16" height="3" rx="1" fill="#04150a"/>
  <rect x="22" y="54" width="4" height="3" rx="1" fill="#00ff41"/>
  <!-- legs + boots -->
  <rect x="18" y="59" width="5" height="6" fill="#1c1c40"/>
  <rect x="25" y="59" width="5" height="6" fill="#1c1c40"/>
  <rect x="16" y="64" width="8" height="4" rx="2" fill="#00ff41"/>
  <rect x="24" y="64" width="8" height="4" rx="2" fill="#00ff41"/>
</svg>
